<?xml version="1.0" encoding="utf-8"?>
<!-- Generator: Adobe Illustrator 27.5.0, SVG Export Plug-In . SVG Version: 6.00 Build 0)  -->
<svg version="1.1" xmlns="http://www.w3.org/2000/svg" xmlns:xlink="http://www.w3.org/1999/xlink" x="0px" y="0px"
	 viewBox="0 0 1122 1122" style="enable-background:new 0 0 1122 1122;" xml:space="preserve">
<g id="Bg">
	<rect style="fill:#FFFFFF;" width="1122" height="1122"/>
</g>
<g id="Object">
	<g>
		<path style="fill:none;" d="M443.312,564.502c-6.382,1.019-11.3,6.251-11.3,12.665v10.189c0,6.506,5.042,11.875,11.574,12.789
			c-0.614-5.01-1.025-10.052-1.025-15.212c0-4.435,0.399-8.765,0.921-13.044C443.417,569.408,443.338,566.978,443.312,564.502z"/>
		<path style="fill:none;" d="M681.766,552.119c-46.316-3.429-173.477-33.214-173.477-33.214
			c-7.681,13.684-27.812,31.058-43.527,42.214c-0.562,2.43-1.117,4.879-1.509,7.374c-0.829,5.382-1.411,10.849-1.411,16.44
			c0,3.991,0.255,7.943,0.679,11.816c0.751,6.656,2.142,13.109,4.056,19.347c14.03,45.598,57.91,78.982,109.812,78.982
			c51.881,0,95.768-33.384,109.792-78.982c1.92-6.238,3.311-12.692,4.056-19.347c0.431-3.873,0.679-7.825,0.679-11.816
			c0-5.591-0.575-11.058-1.404-16.427c-0.875-5.565-2.26-10.967-3.958-16.232C684.339,552.256,683.092,552.204,681.766,552.119z"/>
		<path style="fill:none;" d="M720.741,587.357v-10.189c0-5.957-4.252-10.849-9.967-12.358c-0.496,1.829-1.078,3.632-1.665,5.448
			c0.633,4.807,1.09,9.7,1.09,14.677c0,5.16-0.392,10.203-1.019,15.212C715.698,599.232,720.741,593.863,720.741,587.357z"/>
		<path style="fill:none;" d="M404.905,341.555c-23.24,14.37-31.287,45.664-17.845,69.439c14.305,25.323,46.533,33.88,71.444,19.144
			c24.598-14.572,32.77-46.33,18.217-70.941C461.98,334.318,429.648,326.238,404.905,341.555z"/>
		<path style="fill:#FFFFFF;" d="M592.523,749.984l15.898,104.377h19.021l29.582-155.24c-2.906-0.222-5.806-0.444-8.759-0.444h-9.53
			c-18.615,9.497-39.818,14.931-62.345,14.931c-22.535,0-43.73-5.434-62.359-14.931h-9.516c-2.966,0-5.852,0.222-8.753,0.444
			l29.55,155.24h19.046l15.872-104.377h0.555l-15.592-28.648h62.378l-15.598,28.648H592.523z"/>
		<path style="fill:#616E7D;" d="M627.442,854.362h-19.021h-64.063h-19.046l-29.55-155.24
			c-60.366,4.5-107.996,54.769-107.996,116.297v56.637H765v-56.637c0-61.529-47.616-111.797-107.976-116.297L627.442,854.362z"/>
		<polygon style="fill:#AAD4C8;" points="544.358,854.362 608.421,854.362 592.523,749.984 591.975,749.984 607.572,721.336 
			545.194,721.336 560.786,749.984 560.23,749.984 		"/>
		<path style="fill:#AAD4C8;" d="M521.047,403.933c1.744-1.581,3.429-3.024,4.918-4.128c6.695-5.029,27.668-12.501,32.169-12.841
			h0.033c3.122,0,6.623,2.057,10.751,5.558c0.307-7.27,0.019-14.572-0.836-21.875l-23.09-5.519
			c-1.208-6.061-2.919-12.09-5.095-18.001l16.95-16.695c-2.077-4.5-4.35-8.916-6.911-13.227c-2.548-4.317-5.317-8.446-8.295-12.397
			l-22.77,6.806c-4.128-4.768-8.596-9.151-13.351-13.109l6.297-22.907c-8.145-5.826-16.839-10.699-25.925-14.605l-16.362,17.302
			c-5.905-2.038-11.953-3.599-18.08-4.67l-6.029-23.031c-9.85-0.966-19.811-0.862-29.719,0.359l-5.559,23.077
			c-6.061,1.189-12.057,2.888-17.975,5.082l-16.715-16.898c-4.449,2.019-8.916,4.279-13.227,6.846
			c-4.317,2.547-8.439,5.329-12.384,8.269l6.786,22.808c-4.762,4.142-9.164,8.589-13.103,13.345l-22.9-6.284
			c-5.826,8.139-10.706,16.813-14.612,25.899l17.296,16.375c-2.031,5.892-3.56,11.953-4.65,18.067l-22.992,6.048
			c-0.98,9.85-0.888,19.817,0.307,29.752l23.103,5.5c1.189,6.081,2.9,12.077,5.036,18.021l-16.878,16.695
			c2.011,4.501,4.291,8.896,6.852,13.194c2.58,4.33,5.343,8.472,8.262,12.41l22.802-6.793c4.147,4.775,8.635,9.158,13.364,13.096
			l-6.277,22.927c8.132,5.806,16.793,10.699,25.878,14.572l16.382-17.27c5.918,2.051,11.914,3.579,18.086,4.63l6.036,23.031
			c4.402,0.425,8.831,0.614,13.285,0.614l-0.039-0.732C431.869,466.768,469.504,419.145,521.047,403.933z M458.505,430.139
			c-24.912,14.735-57.14,6.179-71.444-19.144c-13.442-23.776-5.395-55.069,17.845-69.439c24.742-15.317,57.074-7.237,71.816,17.642
			C491.275,383.809,483.103,415.566,458.505,430.139z"/>
		<path style="fill:#616E7D;" d="M412.744,577.168v10.189c0,17.375,14.696,31.503,32.763,31.503h1.934
			c9.849,34.579,34.324,63.345,66.591,79.818c18.629,9.497,39.824,14.931,62.359,14.931c22.528,0,43.73-5.434,62.345-14.931
			c32.267-16.473,56.741-45.239,66.591-79.818h1.934c18.08,0,32.756-14.128,32.756-31.503v-10.189
			c0-15.062-11.058-27.629-25.761-30.738c0.51-4.513,0.869-9.118,0.869-13.788l-0.065-1.306c0.026-3.332-0.092-6.794-0.536-10.51
			v-0.02c-2.018-21.502-9.49-41.385-21.058-58.282c-5.97-8.733-13.057-16.577-20.967-23.508
			c-21.176-18.524-48.635-29.954-78.792-30.686l-1.534-1.202c-1.281-1.41-2.717-1.665-3.671-1.665c-2.266,0-3.847,1.496-5.127,2.717
			h-0.425c-2.417-2.41-4.624-4.501-6.688-6.232c-4.122-3.52-7.616-5.558-10.751-5.558h-0.039
			c-4.481,0.34-25.454,7.799-32.176,12.822c-1.483,1.104-3.155,2.547-4.899,4.128c-51.536,15.232-89.171,62.835-89.171,119.302
			l0.026,0.751l0.059,1.816c-0.059,3.801,0.058,7.537,0.424,11.221C424.435,549.081,412.744,561.713,412.744,577.168z
			 M710.774,564.809c5.715,1.509,9.967,6.402,9.967,12.358v10.189c0,6.506-5.042,11.875-11.561,12.789
			c0.627-5.01,1.019-10.052,1.019-15.212c0-4.977-0.457-9.87-1.09-14.677C709.695,568.441,710.277,566.639,710.774,564.809z
			 M463.253,568.493c0.392-2.495,0.947-4.944,1.509-7.374c15.715-11.156,35.846-28.53,43.527-42.214
			c0,0,127.16,29.784,173.477,33.214c1.326,0.085,2.573,0.137,3.788,0.156c1.698,5.264,3.083,10.666,3.958,16.232
			c0.829,5.369,1.404,10.836,1.404,16.427c0,3.991-0.248,7.943-0.679,11.816c-0.745,6.656-2.136,13.109-4.056,19.347
			c-14.024,45.598-57.91,78.982-109.792,78.982c-51.901,0-95.781-33.384-109.812-78.982c-1.914-6.238-3.305-12.692-4.056-19.347
			c-0.425-3.873-0.679-7.825-0.679-11.816C461.843,579.343,462.424,573.876,463.253,568.493z M432.012,577.168
			c0-6.414,4.919-11.646,11.3-12.665c0.026,2.476,0.104,4.905,0.17,7.387c-0.522,4.279-0.921,8.609-0.921,13.044
			c0,5.16,0.411,10.203,1.025,15.212c-6.532-0.914-11.574-6.283-11.574-12.789V577.168z"/>
	</g>
</g>
</svg>
